<?xml version="1.0" encoding="UTF-8" standalone="no"?>
<!DOCTYPE svg PUBLIC "-//W3C//DTD SVG 1.1//EN"
 "http://www.w3.org/Graphics/SVG/1.1/DTD/svg11.dtd">
<!-- Generated by graphviz version 2.43.0 (0)
 -->
<!-- Title: Tree Pages: 1 -->
<svg width="2758pt" height="671pt"
 viewBox="0.00 0.00 2757.50 671.00" xmlns="http://www.w3.org/2000/svg" xmlns:xlink="http://www.w3.org/1999/xlink">
<g id="graph0" class="graph" transform="scale(1 1) rotate(0) translate(4 667)">
<title>Tree</title>
<polygon fill="white" stroke="transparent" points="-4,4 -4,-667 2753.5,-667 2753.5,4 -4,4"/>
<!-- 0 -->
<g id="node1" class="node">
<title>0</title>
<path fill="#ffffff" stroke="black" d="M1644,-663C1644,-663 1483,-663 1483,-663 1477,-663 1471,-657 1471,-651 1471,-651 1471,-592 1471,-592 1471,-586 1477,-580 1483,-580 1483,-580 1644,-580 1644,-580 1650,-580 1656,-586 1656,-592 1656,-592 1656,-651 1656,-651 1656,-657 1650,-663 1644,-663"/>
<text text-anchor="start" x="1503.5" y="-647.8" font-family="Helvetica,sans-Serif" font-size="14.00">jumlah person ≤ 2.5</text>
<text text-anchor="start" x="1531.5" y="-632.8" font-family="Helvetica,sans-Serif" font-size="14.00">gini = 0.75</text>
<text text-anchor="start" x="1515" y="-617.8" font-family="Helvetica,sans-Serif" font-size="14.00">samples = 3408</text>
<text text-anchor="start" x="1479" y="-602.8" font-family="Helvetica,sans-Serif" font-size="14.00">value = [852, 852, 852, 852]</text>
<text text-anchor="start" x="1521.5" y="-587.8" font-family="Helvetica,sans-Serif" font-size="14.00">class = vgood</text>
</g>
<!-- 1 -->
<g id="node2" class="node">
<title>1</title>
<path fill="#ffffff" stroke="black" d="M1565.5,-544C1565.5,-544 1359.5,-544 1359.5,-544 1353.5,-544 1347.5,-538 1347.5,-532 1347.5,-532 1347.5,-473 1347.5,-473 1347.5,-467 1353.5,-461 1359.5,-461 1359.5,-461 1565.5,-461 1565.5,-461 1571.5,-461 1577.5,-467 1577.5,-473 1577.5,-473 1577.5,-532 1577.5,-532 1577.5,-538 1571.5,-544 1565.5,-544"/>
<text text-anchor="start" x="1413.5" y="-528.8" font-family="Helvetica,sans-Serif" font-size="14.00">keamanan ≤ 1.5</text>
<text text-anchor="start" x="1427" y="-513.8" font-family="Helvetica,sans-Serif" font-size="14.00">gini = 0.737</text>
<text text-anchor="start" x="1414" y="-498.8" font-family="Helvetica,sans-Serif" font-size="14.00">samples = 3015</text>
<text text-anchor="start" x="1355.5" y="-483.8" font-family="Helvetica,sans-Serif" font-size="14.00">value = [852.0, 852.0, 459.0, 852.0]</text>
<text text-anchor="start" x="1420.5" y="-468.8" font-family="Helvetica,sans-Serif" font-size="14.00">class = vgood</text>
</g>
<!-- 0&#45;&gt;1 -->
<g id="edge1" class="edge">
<title>0&#45;&gt;1</title>
<path fill="none" stroke="black" d="M1528.46,-579.91C1520.62,-570.83 1512.24,-561.12 1504.17,-551.77"/>
<polygon fill="black" stroke="black" points="1506.66,-549.3 1497.48,-544.02 1501.36,-553.88 1506.66,-549.3"/>
<text text-anchor="middle" x="1495.65" y="-565.25" font-family="Helvetica,sans-Serif" font-size="14.00">True</text>
</g>
<!-- 32 -->
<g id="node33" class="node">
<title>32</title>
<path fill="#399de5" stroke="black" d="M1723.5,-536.5C1723.5,-536.5 1607.5,-536.5 1607.5,-536.5 1601.5,-536.5 1595.5,-530.5 1595.5,-524.5 1595.5,-524.5 1595.5,-480.5 1595.5,-480.5 1595.5,-474.5 1601.5,-468.5 1607.5,-468.5 1607.5,-468.5 1723.5,-468.5 1723.5,-468.5 1729.5,-468.5 1735.5,-474.5 1735.5,-480.5 1735.5,-480.5 1735.5,-524.5 1735.5,-524.5 1735.5,-530.5 1729.5,-536.5 1723.5,-536.5"/>
<text text-anchor="start" x="1637.5" y="-521.3" font-family="Helvetica,sans-Serif" font-size="14.00">gini = 0.0</text>
<text text-anchor="start" x="1620.5" y="-506.3" font-family="Helvetica,sans-Serif" font-size="14.00">samples = 393</text>
<text text-anchor="start" x="1603.5" y="-491.3" font-family="Helvetica,sans-Serif" font-size="14.00">value = [0, 0, 393, 0]</text>
<text text-anchor="start" x="1631.5" y="-476.3" font-family="Helvetica,sans-Serif" font-size="14.00">class = acc</text>
</g>
<!-- 0&#45;&gt;32 -->
<g id="edge32" class="edge">
<title>0&#45;&gt;32</title>
<path fill="none" stroke="black" d="M1598.89,-579.91C1608.89,-568.43 1619.78,-555.94 1629.81,-544.44"/>
<polygon fill="black" stroke="black" points="1632.65,-546.5 1636.59,-536.67 1627.38,-541.9 1632.65,-546.5"/>
<text text-anchor="middle" x="1638.29" y="-557.91" font-family="Helvetica,sans-Serif" font-size="14.00">False</text>
</g>
<!-- 2 -->
<g id="node3" class="node">
<title>2</title>
<path fill="#f3c6f7" stroke="black" d="M1225.5,-425C1225.5,-425 1027.5,-425 1027.5,-425 1021.5,-425 1015.5,-419 1015.5,-413 1015.5,-413 1015.5,-354 1015.5,-354 1015.5,-348 1021.5,-342 1027.5,-342 1027.5,-342 1225.5,-342 1225.5,-342 1231.5,-342 1237.5,-348 1237.5,-354 1237.5,-354 1237.5,-413 1237.5,-413 1237.5,-419 1231.5,-425 1225.5,-425"/>
<text text-anchor="start" x="1048.5" y="-409.8" font-family="Helvetica,sans-Serif" font-size="14.00">ukuran bagasi mobil ≤ 1.5</text>
<text text-anchor="start" x="1091" y="-394.8" font-family="Helvetica,sans-Serif" font-size="14.00">gini = 0.646</text>
<text text-anchor="start" x="1078" y="-379.8" font-family="Helvetica,sans-Serif" font-size="14.00">samples = 1757</text>
<text text-anchor="start" x="1023.5" y="-364.8" font-family="Helvetica,sans-Serif" font-size="14.00">value = [484.0, 357.0, 64.0, 852.0]</text>
<text text-anchor="start" x="1085" y="-349.8" font-family="Helvetica,sans-Serif" font-size="14.00">class = unacc</text>
</g>
<!-- 1&#45;&gt;2 -->
<g id="edge2" class="edge">
<title>1&#45;&gt;2</title>
<path fill="none" stroke="black" d="M1347.34,-461.4C1315.01,-450.14 1279.76,-437.87 1247.12,-426.5"/>
<polygon fill="black" stroke="black" points="1248.13,-423.15 1237.54,-423.17 1245.83,-429.76 1248.13,-423.15"/>
</g>
<!-- 17 -->
<g id="node18" class="node">
<title>17</title>
<path fill="#eafce8" stroke="black" d="M1860.5,-425C1860.5,-425 1714.5,-425 1714.5,-425 1708.5,-425 1702.5,-419 1702.5,-413 1702.5,-413 1702.5,-354 1702.5,-354 1702.5,-348 1708.5,-342 1714.5,-342 1714.5,-342 1860.5,-342 1860.5,-342 1866.5,-342 1872.5,-348 1872.5,-354 1872.5,-354 1872.5,-413 1872.5,-413 1872.5,-419 1866.5,-425 1860.5,-425"/>
<text text-anchor="start" x="1738.5" y="-409.8" font-family="Helvetica,sans-Serif" font-size="14.00">keamanan ≤ 2.5</text>
<text text-anchor="start" x="1752" y="-394.8" font-family="Helvetica,sans-Serif" font-size="14.00">gini = 0.661</text>
<text text-anchor="start" x="1739" y="-379.8" font-family="Helvetica,sans-Serif" font-size="14.00">samples = 1258</text>
<text text-anchor="start" x="1710.5" y="-364.8" font-family="Helvetica,sans-Serif" font-size="14.00">value = [368, 495, 395, 0]</text>
<text text-anchor="start" x="1746" y="-349.8" font-family="Helvetica,sans-Serif" font-size="14.00">class = unacc</text>
</g>
<!-- 1&#45;&gt;17 -->
<g id="edge17" class="edge">
<title>1&#45;&gt;17</title>
<path fill="none" stroke="black" d="M1575.26,-460.91C1613.54,-447.12 1655.91,-431.87 1692.66,-418.64"/>
<polygon fill="black" stroke="black" points="1694.14,-421.83 1702.36,-415.15 1691.77,-415.24 1694.14,-421.83"/>
</g>
<!-- 3 -->
<g id="node4" class="node">
<title>3</title>
<path fill="#e375ed" stroke="black" d="M623.5,-306C623.5,-306 477.5,-306 477.5,-306 471.5,-306 465.5,-300 465.5,-294 465.5,-294 465.5,-235 465.5,-235 465.5,-229 471.5,-223 477.5,-223 477.5,-223 623.5,-223 623.5,-223 629.5,-223 635.5,-229 635.5,-235 635.5,-235 635.5,-294 635.5,-294 635.5,-300 629.5,-306 623.5,-306"/>
<text text-anchor="start" x="513.5" y="-290.8" font-family="Helvetica,sans-Serif" font-size="14.00">buying ≤ 3.5</text>
<text text-anchor="start" x="515" y="-275.8" font-family="Helvetica,sans-Serif" font-size="14.00">gini = 0.383</text>
<text text-anchor="start" x="505.5" y="-260.8" font-family="Helvetica,sans-Serif" font-size="14.00">samples = 801</text>
<text text-anchor="start" x="473.5" y="-245.8" font-family="Helvetica,sans-Serif" font-size="14.00">value = [165, 10, 19, 607]</text>
<text text-anchor="start" x="509" y="-230.8" font-family="Helvetica,sans-Serif" font-size="14.00">class = unacc</text>
</g>
<!-- 2&#45;&gt;3 -->
<g id="edge3" class="edge">
<title>2&#45;&gt;3</title>
<path fill="none" stroke="black" d="M1015.44,-359.94C908.19,-338.16 747.49,-305.51 645.87,-284.87"/>
<polygon fill="black" stroke="black" points="646.41,-281.41 635.92,-282.85 645.02,-288.27 646.41,-281.41"/>
</g>
<!-- 10 -->
<g id="node11" class="node">
<title>10</title>
<path fill="#f7fef6" stroke="black" d="M1203,-306C1203,-306 1050,-306 1050,-306 1044,-306 1038,-300 1038,-294 1038,-294 1038,-235 1038,-235 1038,-229 1044,-223 1050,-223 1050,-223 1203,-223 1203,-223 1209,-223 1215,-229 1215,-235 1215,-235 1215,-294 1215,-294 1215,-300 1209,-306 1203,-306"/>
<text text-anchor="start" x="1048.5" y="-290.8" font-family="Helvetica,sans-Serif" font-size="14.00">ukuran bagasi mobil ≤ 2.5</text>
<text text-anchor="start" x="1091" y="-275.8" font-family="Helvetica,sans-Serif" font-size="14.00">gini = 0.689</text>
<text text-anchor="start" x="1081.5" y="-260.8" font-family="Helvetica,sans-Serif" font-size="14.00">samples = 956</text>
<text text-anchor="start" x="1046" y="-245.8" font-family="Helvetica,sans-Serif" font-size="14.00">value = [319, 347, 45, 245]</text>
<text text-anchor="start" x="1085" y="-230.8" font-family="Helvetica,sans-Serif" font-size="14.00">class = unacc</text>
</g>
<!-- 2&#45;&gt;10 -->
<g id="edge10" class="edge">
<title>2&#45;&gt;10</title>
<path fill="none" stroke="black" d="M1126.5,-341.91C1126.5,-333.65 1126.5,-324.86 1126.5,-316.3"/>
<polygon fill="black" stroke="black" points="1130,-316.02 1126.5,-306.02 1123,-316.02 1130,-316.02"/>
</g>
<!-- 4 -->
<g id="node5" class="node">
<title>4</title>
<path fill="#e169eb" stroke="black" d="M342.5,-187C342.5,-187 204.5,-187 204.5,-187 198.5,-187 192.5,-181 192.5,-175 192.5,-175 192.5,-116 192.5,-116 192.5,-110 198.5,-104 204.5,-104 204.5,-104 342.5,-104 342.5,-104 348.5,-104 354.5,-110 354.5,-116 354.5,-116 354.5,-175 354.5,-175 354.5,-181 348.5,-187 342.5,-187"/>
<text text-anchor="start" x="236.5" y="-171.8" font-family="Helvetica,sans-Serif" font-size="14.00">buying ≤ 2.5</text>
<text text-anchor="start" x="238" y="-156.8" font-family="Helvetica,sans-Serif" font-size="14.00">gini = 0.325</text>
<text text-anchor="start" x="228.5" y="-141.8" font-family="Helvetica,sans-Serif" font-size="14.00">samples = 757</text>
<text text-anchor="start" x="200.5" y="-126.8" font-family="Helvetica,sans-Serif" font-size="14.00">value = [134, 10, 6, 607]</text>
<text text-anchor="start" x="232" y="-111.8" font-family="Helvetica,sans-Serif" font-size="14.00">class = unacc</text>
</g>
<!-- 3&#45;&gt;4 -->
<g id="edge4" class="edge">
<title>3&#45;&gt;4</title>
<path fill="none" stroke="black" d="M465.13,-227.44C433.16,-213.94 396.73,-198.55 364.28,-184.84"/>
<polygon fill="black" stroke="black" points="365.37,-181.51 354.8,-180.84 362.65,-187.95 365.37,-181.51"/>
</g>
<!-- 7 -->
<g id="node8" class="node">
<title>7</title>
<path fill="#f0b68c" stroke="black" d="M631.5,-187C631.5,-187 469.5,-187 469.5,-187 463.5,-187 457.5,-181 457.5,-175 457.5,-175 457.5,-116 457.5,-116 457.5,-110 463.5,-104 469.5,-104 469.5,-104 631.5,-104 631.5,-104 637.5,-104 643.5,-110 643.5,-116 643.5,-116 643.5,-175 643.5,-175 643.5,-181 637.5,-187 631.5,-187"/>
<text text-anchor="start" x="465.5" y="-171.8" font-family="Helvetica,sans-Serif" font-size="14.00">biaya perawatan mobil ≤ 1.5</text>
<text text-anchor="start" x="515" y="-156.8" font-family="Helvetica,sans-Serif" font-size="14.00">gini = 0.416</text>
<text text-anchor="start" x="509.5" y="-141.8" font-family="Helvetica,sans-Serif" font-size="14.00">samples = 44</text>
<text text-anchor="start" x="488.5" y="-126.8" font-family="Helvetica,sans-Serif" font-size="14.00">value = [31, 0, 13, 0]</text>
<text text-anchor="start" x="508.5" y="-111.8" font-family="Helvetica,sans-Serif" font-size="14.00">class = vgood</text>
</g>
<!-- 3&#45;&gt;7 -->
<g id="edge7" class="edge">
<title>3&#45;&gt;7</title>
<path fill="none" stroke="black" d="M550.5,-222.91C550.5,-214.65 550.5,-205.86 550.5,-197.3"/>
<polygon fill="black" stroke="black" points="554,-197.02 550.5,-187.02 547,-197.02 554,-197.02"/>
</g>
<!-- 5 -->
<g id="node6" class="node">
<title>5</title>
<path fill="#ea98f2" stroke="black" d="M143,-68C143,-68 12,-68 12,-68 6,-68 0,-62 0,-56 0,-56 0,-12 0,-12 0,-6 6,0 12,0 12,0 143,0 143,0 149,0 155,-6 155,-12 155,-12 155,-56 155,-56 155,-62 149,-68 143,-68"/>
<text text-anchor="start" x="42" y="-52.8" font-family="Helvetica,sans-Serif" font-size="14.00">gini = 0.452</text>
<text text-anchor="start" x="32.5" y="-37.8" font-family="Helvetica,sans-Serif" font-size="14.00">samples = 382</text>
<text text-anchor="start" x="8" y="-22.8" font-family="Helvetica,sans-Serif" font-size="14.00">value = [120, 0, 6, 256]</text>
<text text-anchor="start" x="36" y="-7.8" font-family="Helvetica,sans-Serif" font-size="14.00">class = unacc</text>
</g>
<!-- 4&#45;&gt;5 -->
<g id="edge5" class="edge">
<title>4&#45;&gt;5</title>
<path fill="none" stroke="black" d="M200.8,-103.88C182.8,-93.83 163.58,-83.09 145.8,-73.16"/>
<polygon fill="black" stroke="black" points="147.08,-69.87 136.65,-68.04 143.67,-75.98 147.08,-69.87"/>
</g>
<!-- 6 -->
<g id="node7" class="node">
<title>6</title>
<path fill="#da46e7" stroke="black" d="M361.5,-68C361.5,-68 185.5,-68 185.5,-68 179.5,-68 173.5,-62 173.5,-56 173.5,-56 173.5,-12 173.5,-12 173.5,-6 179.5,0 185.5,0 185.5,0 361.5,0 361.5,0 367.5,0 373.5,-6 373.5,-12 373.5,-12 373.5,-56 373.5,-56 373.5,-62 367.5,-68 361.5,-68"/>
<text text-anchor="start" x="238" y="-52.8" font-family="Helvetica,sans-Serif" font-size="14.00">gini = 0.122</text>
<text text-anchor="start" x="228.5" y="-37.8" font-family="Helvetica,sans-Serif" font-size="14.00">samples = 375</text>
<text text-anchor="start" x="181.5" y="-22.8" font-family="Helvetica,sans-Serif" font-size="14.00">value = [14.0, 10.0, 0.0, 351.0]</text>
<text text-anchor="start" x="232" y="-7.8" font-family="Helvetica,sans-Serif" font-size="14.00">class = unacc</text>
</g>
<!-- 4&#45;&gt;6 -->
<g id="edge6" class="edge">
<title>4&#45;&gt;6</title>
<path fill="none" stroke="black" d="M273.5,-103.73C273.5,-95.52 273.5,-86.86 273.5,-78.56"/>
<polygon fill="black" stroke="black" points="277,-78.3 273.5,-68.3 270,-78.3 277,-78.3"/>
</g>
<!-- 8 -->
<g id="node9" class="node">
<title>8</title>
<path fill="#e58139" stroke="black" d="M511.5,-68C511.5,-68 403.5,-68 403.5,-68 397.5,-68 391.5,-62 391.5,-56 391.5,-56 391.5,-12 391.5,-12 391.5,-6 397.5,0 403.5,0 403.5,0 511.5,0 511.5,0 517.5,0 523.5,-6 523.5,-12 523.5,-12 523.5,-56 523.5,-56 523.5,-62 517.5,-68 511.5,-68"/>
<text text-anchor="start" x="429.5" y="-52.8" font-family="Helvetica,sans-Serif" font-size="14.00">gini = 0.0</text>
<text text-anchor="start" x="416.5" y="-37.8" font-family="Helvetica,sans-Serif" font-size="14.00">samples = 21</text>
<text text-anchor="start" x="399.5" y="-22.8" font-family="Helvetica,sans-Serif" font-size="14.00">value = [21, 0, 0, 0]</text>
<text text-anchor="start" x="415.5" y="-7.8" font-family="Helvetica,sans-Serif" font-size="14.00">class = vgood</text>
</g>
<!-- 7&#45;&gt;8 -->
<g id="edge8" class="edge">
<title>7&#45;&gt;8</title>
<path fill="none" stroke="black" d="M515.87,-103.73C508.2,-94.7 500.07,-85.12 492.39,-76.08"/>
<polygon fill="black" stroke="black" points="494.92,-73.66 485.78,-68.3 489.59,-78.19 494.92,-73.66"/>
</g>
<!-- 9 -->
<g id="node10" class="node">
<title>9</title>
<path fill="#d1e8f9" stroke="black" d="M715,-68C715,-68 554,-68 554,-68 548,-68 542,-62 542,-56 542,-56 542,-12 542,-12 542,-6 548,0 554,0 554,0 715,0 715,0 721,0 727,-6 727,-12 727,-12 727,-56 727,-56 727,-62 721,-68 715,-68"/>
<text text-anchor="start" x="599" y="-52.8" font-family="Helvetica,sans-Serif" font-size="14.00">gini = 0.491</text>
<text text-anchor="start" x="593.5" y="-37.8" font-family="Helvetica,sans-Serif" font-size="14.00">samples = 23</text>
<text text-anchor="start" x="550" y="-22.8" font-family="Helvetica,sans-Serif" font-size="14.00">value = [10.0, 0.0, 13.0, 0.0]</text>
<text text-anchor="start" x="600.5" y="-7.8" font-family="Helvetica,sans-Serif" font-size="14.00">class = acc</text>
</g>
<!-- 7&#45;&gt;9 -->
<g id="edge9" class="edge">
<title>7&#45;&gt;9</title>
<path fill="none" stroke="black" d="M581.78,-103.73C588.64,-94.79 595.9,-85.32 602.78,-76.36"/>
<polygon fill="black" stroke="black" points="605.65,-78.36 608.96,-68.3 600.09,-74.1 605.65,-78.36"/>
</g>
<!-- 11 -->
<g id="node12" class="node">
<title>11</title>
<path fill="#c9f7c5" stroke="black" d="M1117,-187C1117,-187 926,-187 926,-187 920,-187 914,-181 914,-175 914,-175 914,-116 914,-116 914,-110 920,-104 926,-104 926,-104 1117,-104 1117,-104 1123,-104 1129,-110 1129,-116 1129,-116 1129,-175 1129,-175 1129,-181 1123,-187 1117,-187"/>
<text text-anchor="start" x="984.5" y="-171.8" font-family="Helvetica,sans-Serif" font-size="14.00">buying ≤ 2.5</text>
<text text-anchor="start" x="986" y="-156.8" font-family="Helvetica,sans-Serif" font-size="14.00">gini = 0.613</text>
<text text-anchor="start" x="976.5" y="-141.8" font-family="Helvetica,sans-Serif" font-size="14.00">samples = 586</text>
<text text-anchor="start" x="922" y="-126.8" font-family="Helvetica,sans-Serif" font-size="14.00">value = [188.0, 304.0, 27.0, 67.0]</text>
<text text-anchor="start" x="980" y="-111.8" font-family="Helvetica,sans-Serif" font-size="14.00">class = unacc</text>
</g>
<!-- 10&#45;&gt;11 -->
<g id="edge11" class="edge">
<title>10&#45;&gt;11</title>
<path fill="none" stroke="black" d="M1090.07,-222.91C1081.85,-213.74 1073.04,-203.93 1064.57,-194.49"/>
<polygon fill="black" stroke="black" points="1067.15,-192.13 1057.86,-187.02 1061.94,-196.8 1067.15,-192.13"/>
</g>
<!-- 14 -->
<g id="node15" class="node">
<title>14</title>
<path fill="#f7d8fa" stroke="black" d="M1305.5,-187C1305.5,-187 1159.5,-187 1159.5,-187 1153.5,-187 1147.5,-181 1147.5,-175 1147.5,-175 1147.5,-116 1147.5,-116 1147.5,-110 1153.5,-104 1159.5,-104 1159.5,-104 1305.5,-104 1305.5,-104 1311.5,-104 1317.5,-110 1317.5,-116 1317.5,-116 1317.5,-175 1317.5,-175 1317.5,-181 1311.5,-187 1305.5,-187"/>
<text text-anchor="start" x="1167.5" y="-171.8" font-family="Helvetica,sans-Serif" font-size="14.00">juml pintu mobil ≤ 2.5</text>
<text text-anchor="start" x="1197" y="-156.8" font-family="Helvetica,sans-Serif" font-size="14.00">gini = 0.627</text>
<text text-anchor="start" x="1187.5" y="-141.8" font-family="Helvetica,sans-Serif" font-size="14.00">samples = 370</text>
<text text-anchor="start" x="1155.5" y="-126.8" font-family="Helvetica,sans-Serif" font-size="14.00">value = [131, 43, 18, 178]</text>
<text text-anchor="start" x="1191" y="-111.8" font-family="Helvetica,sans-Serif" font-size="14.00">class = unacc</text>
</g>
<!-- 10&#45;&gt;14 -->
<g id="edge14" class="edge">
<title>10&#45;&gt;14</title>
<path fill="none" stroke="black" d="M1163.28,-222.91C1171.58,-213.74 1180.47,-203.93 1189.02,-194.49"/>
<polygon fill="black" stroke="black" points="1191.67,-196.78 1195.79,-187.02 1186.48,-192.08 1191.67,-196.78"/>
</g>
<!-- 12 -->
<g id="node13" class="node">
<title>12</title>
<path fill="#fae5d5" stroke="black" d="M895.5,-68C895.5,-68 757.5,-68 757.5,-68 751.5,-68 745.5,-62 745.5,-56 745.5,-56 745.5,-12 745.5,-12 745.5,-6 751.5,0 757.5,0 757.5,0 895.5,0 895.5,0 901.5,0 907.5,-6 907.5,-12 907.5,-12 907.5,-56 907.5,-56 907.5,-62 901.5,-68 895.5,-68"/>
<text text-anchor="start" x="791" y="-52.8" font-family="Helvetica,sans-Serif" font-size="14.00">gini = 0.641</text>
<text text-anchor="start" x="781.5" y="-37.8" font-family="Helvetica,sans-Serif" font-size="14.00">samples = 264</text>
<text text-anchor="start" x="753.5" y="-22.8" font-family="Helvetica,sans-Serif" font-size="14.00">value = [125, 88, 12, 39]</text>
<text text-anchor="start" x="784.5" y="-7.8" font-family="Helvetica,sans-Serif" font-size="14.00">class = vgood</text>
</g>
<!-- 11&#45;&gt;12 -->
<g id="edge12" class="edge">
<title>11&#45;&gt;12</title>
<path fill="none" stroke="black" d="M949.17,-103.88C931.26,-93.83 912.14,-83.09 894.45,-73.16"/>
<polygon fill="black" stroke="black" points="895.78,-69.89 885.34,-68.04 892.35,-75.99 895.78,-69.89"/>
</g>
<!-- 13 -->
<g id="node14" class="node">
<title>13</title>
<path fill="#92f08a" stroke="black" d="M1121,-68C1121,-68 938,-68 938,-68 932,-68 926,-62 926,-56 926,-56 926,-12 926,-12 926,-6 932,0 938,0 938,0 1121,0 1121,0 1127,0 1133,-6 1133,-12 1133,-12 1133,-56 1133,-56 1133,-62 1127,-68 1121,-68"/>
<text text-anchor="start" x="994" y="-52.8" font-family="Helvetica,sans-Serif" font-size="14.00">gini = 0.502</text>
<text text-anchor="start" x="984.5" y="-37.8" font-family="Helvetica,sans-Serif" font-size="14.00">samples = 322</text>
<text text-anchor="start" x="934" y="-22.8" font-family="Helvetica,sans-Serif" font-size="14.00">value = [63.0, 216.0, 15.0, 28.0]</text>
<text text-anchor="start" x="988" y="-7.8" font-family="Helvetica,sans-Serif" font-size="14.00">class = unacc</text>
</g>
<!-- 11&#45;&gt;13 -->
<g id="edge13" class="edge">
<title>11&#45;&gt;13</title>
<path fill="none" stroke="black" d="M1024.48,-103.73C1025.09,-95.43 1025.73,-86.67 1026.34,-78.28"/>
<polygon fill="black" stroke="black" points="1029.83,-78.53 1027.07,-68.3 1022.85,-78.02 1029.83,-78.53"/>
</g>
<!-- 15 -->
<g id="node16" class="node">
<title>15</title>
<path fill="#e993f1" stroke="black" d="M1286,-68C1286,-68 1163,-68 1163,-68 1157,-68 1151,-62 1151,-56 1151,-56 1151,-12 1151,-12 1151,-6 1157,0 1163,0 1163,0 1286,0 1286,0 1292,0 1298,-6 1298,-12 1298,-12 1298,-56 1298,-56 1298,-62 1292,-68 1286,-68"/>
<text text-anchor="start" x="1189" y="-52.8" font-family="Helvetica,sans-Serif" font-size="14.00">gini = 0.484</text>
<text text-anchor="start" x="1179.5" y="-37.8" font-family="Helvetica,sans-Serif" font-size="14.00">samples = 233</text>
<text text-anchor="start" x="1159" y="-22.8" font-family="Helvetica,sans-Serif" font-size="14.00">value = [62, 8, 8, 155]</text>
<text text-anchor="start" x="1183" y="-7.8" font-family="Helvetica,sans-Serif" font-size="14.00">class = unacc</text>
</g>
<!-- 14&#45;&gt;15 -->
<g id="edge15" class="edge">
<title>14&#45;&gt;15</title>
<path fill="none" stroke="black" d="M1229.52,-103.73C1228.91,-95.43 1228.27,-86.67 1227.66,-78.28"/>
<polygon fill="black" stroke="black" points="1231.15,-78.02 1226.93,-68.3 1224.17,-78.53 1231.15,-78.02"/>
</g>
<!-- 16 -->
<g id="node17" class="node">
<title>16</title>
<path fill="#f6d5bd" stroke="black" d="M1459,-68C1459,-68 1328,-68 1328,-68 1322,-68 1316,-62 1316,-56 1316,-56 1316,-12 1316,-12 1316,-6 1322,0 1328,0 1328,0 1459,0 1459,0 1465,0 1471,-6 1471,-12 1471,-12 1471,-56 1471,-56 1471,-62 1465,-68 1459,-68"/>
<text text-anchor="start" x="1358" y="-52.8" font-family="Helvetica,sans-Serif" font-size="14.00">gini = 0.648</text>
<text text-anchor="start" x="1348.5" y="-37.8" font-family="Helvetica,sans-Serif" font-size="14.00">samples = 137</text>
<text text-anchor="start" x="1324" y="-22.8" font-family="Helvetica,sans-Serif" font-size="14.00">value = [69, 35, 10, 23]</text>
<text text-anchor="start" x="1351.5" y="-7.8" font-family="Helvetica,sans-Serif" font-size="14.00">class = vgood</text>
</g>
<!-- 14&#45;&gt;16 -->
<g id="edge16" class="edge">
<title>14&#45;&gt;16</title>
<path fill="none" stroke="black" d="M1292.45,-103.73C1306.87,-93.92 1322.24,-83.46 1336.53,-73.75"/>
<polygon fill="black" stroke="black" points="1338.49,-76.64 1344.8,-68.13 1334.56,-70.85 1338.49,-76.64"/>
</g>
<!-- 18 -->
<g id="node19" class="node">
<title>18</title>
<path fill="#50a8e8" stroke="black" d="M1868.5,-306C1868.5,-306 1706.5,-306 1706.5,-306 1700.5,-306 1694.5,-300 1694.5,-294 1694.5,-294 1694.5,-235 1694.5,-235 1694.5,-229 1700.5,-223 1706.5,-223 1706.5,-223 1868.5,-223 1868.5,-223 1874.5,-223 1880.5,-229 1880.5,-235 1880.5,-235 1880.5,-294 1880.5,-294 1880.5,-300 1874.5,-306 1868.5,-306"/>
<text text-anchor="start" x="1702.5" y="-290.8" font-family="Helvetica,sans-Serif" font-size="14.00">biaya perawatan mobil ≤ 1.5</text>
<text text-anchor="start" x="1752" y="-275.8" font-family="Helvetica,sans-Serif" font-size="14.00">gini = 0.187</text>
<text text-anchor="start" x="1742.5" y="-260.8" font-family="Helvetica,sans-Serif" font-size="14.00">samples = 306</text>
<text text-anchor="start" x="1722" y="-245.8" font-family="Helvetica,sans-Serif" font-size="14.00">value = [0, 32, 274, 0]</text>
<text text-anchor="start" x="1753.5" y="-230.8" font-family="Helvetica,sans-Serif" font-size="14.00">class = acc</text>
</g>
<!-- 17&#45;&gt;18 -->
<g id="edge18" class="edge">
<title>17&#45;&gt;18</title>
<path fill="none" stroke="black" d="M1787.5,-341.91C1787.5,-333.65 1787.5,-324.86 1787.5,-316.3"/>
<polygon fill="black" stroke="black" points="1791,-316.02 1787.5,-306.02 1784,-316.02 1791,-316.02"/>
</g>
<!-- 25 -->
<g id="node26" class="node">
<title>25</title>
<path fill="#e1fbdf" stroke="black" d="M2342.5,-306C2342.5,-306 2180.5,-306 2180.5,-306 2174.5,-306 2168.5,-300 2168.5,-294 2168.5,-294 2168.5,-235 2168.5,-235 2168.5,-229 2174.5,-223 2180.5,-223 2180.5,-223 2342.5,-223 2342.5,-223 2348.5,-223 2354.5,-229 2354.5,-235 2354.5,-235 2354.5,-294 2354.5,-294 2354.5,-300 2348.5,-306 2342.5,-306"/>
<text text-anchor="start" x="2176.5" y="-290.8" font-family="Helvetica,sans-Serif" font-size="14.00">biaya perawatan mobil ≤ 3.5</text>
<text text-anchor="start" x="2226" y="-275.8" font-family="Helvetica,sans-Serif" font-size="14.00">gini = 0.598</text>
<text text-anchor="start" x="2216.5" y="-260.8" font-family="Helvetica,sans-Serif" font-size="14.00">samples = 952</text>
<text text-anchor="start" x="2184.5" y="-245.8" font-family="Helvetica,sans-Serif" font-size="14.00">value = [368, 463, 121, 0]</text>
<text text-anchor="start" x="2220" y="-230.8" font-family="Helvetica,sans-Serif" font-size="14.00">class = unacc</text>
</g>
<!-- 17&#45;&gt;25 -->
<g id="edge25" class="edge">
<title>17&#45;&gt;25</title>
<path fill="none" stroke="black" d="M1872.52,-361.52C1952.68,-341.73 2072.97,-312.04 2158.54,-290.92"/>
<polygon fill="black" stroke="black" points="2159.4,-294.31 2168.27,-288.51 2157.72,-287.51 2159.4,-294.31"/>
</g>
<!-- 19 -->
<g id="node20" class="node">
<title>19</title>
<path fill="#7bbeee" stroke="black" d="M1755.5,-187C1755.5,-187 1639.5,-187 1639.5,-187 1633.5,-187 1627.5,-181 1627.5,-175 1627.5,-175 1627.5,-116 1627.5,-116 1627.5,-110 1633.5,-104 1639.5,-104 1639.5,-104 1755.5,-104 1755.5,-104 1761.5,-104 1767.5,-110 1767.5,-116 1767.5,-116 1767.5,-175 1767.5,-175 1767.5,-181 1761.5,-187 1755.5,-187"/>
<text text-anchor="start" x="1660.5" y="-171.8" font-family="Helvetica,sans-Serif" font-size="14.00">buying ≤ 2.5</text>
<text text-anchor="start" x="1662" y="-156.8" font-family="Helvetica,sans-Serif" font-size="14.00">gini = 0.375</text>
<text text-anchor="start" x="1652.5" y="-141.8" font-family="Helvetica,sans-Serif" font-size="14.00">samples = 100</text>
<text text-anchor="start" x="1635.5" y="-126.8" font-family="Helvetica,sans-Serif" font-size="14.00">value = [0, 25, 75, 0]</text>
<text text-anchor="start" x="1663.5" y="-111.8" font-family="Helvetica,sans-Serif" font-size="14.00">class = acc</text>
</g>
<!-- 18&#45;&gt;19 -->
<g id="edge19" class="edge">
<title>18&#45;&gt;19</title>
<path fill="none" stroke="black" d="M1756.27,-222.91C1749.36,-213.92 1741.97,-204.32 1734.85,-195.05"/>
<polygon fill="black" stroke="black" points="1737.54,-192.81 1728.67,-187.02 1731.99,-197.08 1737.54,-192.81"/>
</g>
<!-- 22 -->
<g id="node23" class="node">
<title>22</title>
<path fill="#40a0e6" stroke="black" d="M1959.5,-187C1959.5,-187 1797.5,-187 1797.5,-187 1791.5,-187 1785.5,-181 1785.5,-175 1785.5,-175 1785.5,-116 1785.5,-116 1785.5,-110 1791.5,-104 1797.5,-104 1797.5,-104 1959.5,-104 1959.5,-104 1965.5,-104 1971.5,-110 1971.5,-116 1971.5,-116 1971.5,-175 1971.5,-175 1971.5,-181 1965.5,-187 1959.5,-187"/>
<text text-anchor="start" x="1793.5" y="-171.8" font-family="Helvetica,sans-Serif" font-size="14.00">biaya perawatan mobil ≤ 3.5</text>
<text text-anchor="start" x="1843" y="-156.8" font-family="Helvetica,sans-Serif" font-size="14.00">gini = 0.066</text>
<text text-anchor="start" x="1833.5" y="-141.8" font-family="Helvetica,sans-Serif" font-size="14.00">samples = 206</text>
<text text-anchor="start" x="1816.5" y="-126.8" font-family="Helvetica,sans-Serif" font-size="14.00">value = [0, 7, 199, 0]</text>
<text text-anchor="start" x="1844.5" y="-111.8" font-family="Helvetica,sans-Serif" font-size="14.00">class = acc</text>
</g>
<!-- 18&#45;&gt;22 -->
<g id="edge22" class="edge">
<title>18&#45;&gt;22</title>
<path fill="none" stroke="black" d="M1819.07,-222.91C1826.06,-213.92 1833.53,-204.32 1840.74,-195.05"/>
<polygon fill="black" stroke="black" points="1843.61,-197.06 1846.98,-187.02 1838.08,-192.77 1843.61,-197.06"/>
</g>
<!-- 20 -->
<g id="node21" class="node">
<title>20</title>
<path fill="#399de5" stroke="black" d="M1609.5,-68C1609.5,-68 1501.5,-68 1501.5,-68 1495.5,-68 1489.5,-62 1489.5,-56 1489.5,-56 1489.5,-12 1489.5,-12 1489.5,-6 1495.5,0 1501.5,0 1501.5,0 1609.5,0 1609.5,0 1615.5,0 1621.5,-6 1621.5,-12 1621.5,-12 1621.5,-56 1621.5,-56 1621.5,-62 1615.5,-68 1609.5,-68"/>
<text text-anchor="start" x="1527.5" y="-52.8" font-family="Helvetica,sans-Serif" font-size="14.00">gini = 0.0</text>
<text text-anchor="start" x="1514.5" y="-37.8" font-family="Helvetica,sans-Serif" font-size="14.00">samples = 39</text>
<text text-anchor="start" x="1497.5" y="-22.8" font-family="Helvetica,sans-Serif" font-size="14.00">value = [0, 0, 39, 0]</text>
<text text-anchor="start" x="1521.5" y="-7.8" font-family="Helvetica,sans-Serif" font-size="14.00">class = acc</text>
</g>
<!-- 19&#45;&gt;20 -->
<g id="edge20" class="edge">
<title>19&#45;&gt;20</title>
<path fill="none" stroke="black" d="M1644.62,-103.73C1632.21,-94.15 1618.99,-83.96 1606.65,-74.44"/>
<polygon fill="black" stroke="black" points="1608.74,-71.63 1598.68,-68.3 1604.46,-77.18 1608.74,-71.63"/>
</g>
<!-- 21 -->
<g id="node22" class="node">
<title>21</title>
<path fill="#c2e1f7" stroke="black" d="M1767.5,-68C1767.5,-68 1651.5,-68 1651.5,-68 1645.5,-68 1639.5,-62 1639.5,-56 1639.5,-56 1639.5,-12 1639.5,-12 1639.5,-6 1645.5,0 1651.5,0 1651.5,0 1767.5,0 1767.5,0 1773.5,0 1779.5,-6 1779.5,-12 1779.5,-12 1779.5,-56 1779.5,-56 1779.5,-62 1773.5,-68 1767.5,-68"/>
<text text-anchor="start" x="1674" y="-52.8" font-family="Helvetica,sans-Serif" font-size="14.00">gini = 0.484</text>
<text text-anchor="start" x="1668.5" y="-37.8" font-family="Helvetica,sans-Serif" font-size="14.00">samples = 61</text>
<text text-anchor="start" x="1647.5" y="-22.8" font-family="Helvetica,sans-Serif" font-size="14.00">value = [0, 25, 36, 0]</text>
<text text-anchor="start" x="1675.5" y="-7.8" font-family="Helvetica,sans-Serif" font-size="14.00">class = acc</text>
</g>
<!-- 19&#45;&gt;21 -->
<g id="edge21" class="edge">
<title>19&#45;&gt;21</title>
<path fill="none" stroke="black" d="M1701.97,-103.73C1702.88,-95.43 1703.84,-86.67 1704.76,-78.28"/>
<polygon fill="black" stroke="black" points="1708.24,-78.62 1705.85,-68.3 1701.28,-77.86 1708.24,-78.62"/>
</g>
<!-- 23 -->
<g id="node24" class="node">
<title>23</title>
<path fill="#399de5" stroke="black" d="M1925.5,-68C1925.5,-68 1809.5,-68 1809.5,-68 1803.5,-68 1797.5,-62 1797.5,-56 1797.5,-56 1797.5,-12 1797.5,-12 1797.5,-6 1803.5,0 1809.5,0 1809.5,0 1925.5,0 1925.5,0 1931.5,0 1937.5,-6 1937.5,-12 1937.5,-12 1937.5,-56 1937.5,-56 1937.5,-62 1931.5,-68 1925.5,-68"/>
<text text-anchor="start" x="1839.5" y="-52.8" font-family="Helvetica,sans-Serif" font-size="14.00">gini = 0.0</text>
<text text-anchor="start" x="1822.5" y="-37.8" font-family="Helvetica,sans-Serif" font-size="14.00">samples = 134</text>
<text text-anchor="start" x="1805.5" y="-22.8" font-family="Helvetica,sans-Serif" font-size="14.00">value = [0, 0, 134, 0]</text>
<text text-anchor="start" x="1833.5" y="-7.8" font-family="Helvetica,sans-Serif" font-size="14.00">class = acc</text>
</g>
<!-- 22&#45;&gt;23 -->
<g id="edge23" class="edge">
<title>22&#45;&gt;23</title>
<path fill="none" stroke="black" d="M1874.4,-103.73C1873.57,-95.43 1872.69,-86.67 1871.85,-78.28"/>
<polygon fill="black" stroke="black" points="1875.33,-77.9 1870.85,-68.3 1868.36,-78.6 1875.33,-77.9"/>
</g>
<!-- 24 -->
<g id="node25" class="node">
<title>24</title>
<path fill="#4ea8e8" stroke="black" d="M2075.5,-68C2075.5,-68 1967.5,-68 1967.5,-68 1961.5,-68 1955.5,-62 1955.5,-56 1955.5,-56 1955.5,-12 1955.5,-12 1955.5,-6 1961.5,0 1967.5,0 1967.5,0 2075.5,0 2075.5,0 2081.5,0 2087.5,-6 2087.5,-12 2087.5,-12 2087.5,-56 2087.5,-56 2087.5,-62 2081.5,-68 2075.5,-68"/>
<text text-anchor="start" x="1986" y="-52.8" font-family="Helvetica,sans-Serif" font-size="14.00">gini = 0.176</text>
<text text-anchor="start" x="1980.5" y="-37.8" font-family="Helvetica,sans-Serif" font-size="14.00">samples = 72</text>
<text text-anchor="start" x="1963.5" y="-22.8" font-family="Helvetica,sans-Serif" font-size="14.00">value = [0, 7, 65, 0]</text>
<text text-anchor="start" x="1987.5" y="-7.8" font-family="Helvetica,sans-Serif" font-size="14.00">class = acc</text>
</g>
<!-- 22&#45;&gt;24 -->
<g id="edge24" class="edge">
<title>22&#45;&gt;24</title>
<path fill="none" stroke="black" d="M1931.75,-103.73C1944.25,-94.15 1957.56,-83.96 1969.99,-74.44"/>
<polygon fill="black" stroke="black" points="1972.2,-77.16 1978.01,-68.3 1967.95,-71.6 1972.2,-77.16"/>
</g>
<!-- 26 -->
<g id="node27" class="node">
<title>26</title>
<path fill="#f4caac" stroke="black" d="M2334.5,-187C2334.5,-187 2188.5,-187 2188.5,-187 2182.5,-187 2176.5,-181 2176.5,-175 2176.5,-175 2176.5,-116 2176.5,-116 2176.5,-110 2182.5,-104 2188.5,-104 2188.5,-104 2334.5,-104 2334.5,-104 2340.5,-104 2346.5,-110 2346.5,-116 2346.5,-116 2346.5,-175 2346.5,-175 2346.5,-181 2340.5,-187 2334.5,-187"/>
<text text-anchor="start" x="2224.5" y="-171.8" font-family="Helvetica,sans-Serif" font-size="14.00">buying ≤ 2.5</text>
<text text-anchor="start" x="2226" y="-156.8" font-family="Helvetica,sans-Serif" font-size="14.00">gini = 0.588</text>
<text text-anchor="start" x="2216.5" y="-141.8" font-family="Helvetica,sans-Serif" font-size="14.00">samples = 525</text>
<text text-anchor="start" x="2184.5" y="-126.8" font-family="Helvetica,sans-Serif" font-size="14.00">value = [294, 128, 103, 0]</text>
<text text-anchor="start" x="2219.5" y="-111.8" font-family="Helvetica,sans-Serif" font-size="14.00">class = vgood</text>
</g>
<!-- 25&#45;&gt;26 -->
<g id="edge26" class="edge">
<title>25&#45;&gt;26</title>
<path fill="none" stroke="black" d="M2261.5,-222.91C2261.5,-214.65 2261.5,-205.86 2261.5,-197.3"/>
<polygon fill="black" stroke="black" points="2265,-197.02 2261.5,-187.02 2258,-197.02 2265,-197.02"/>
</g>
<!-- 29 -->
<g id="node30" class="node">
<title>29</title>
<path fill="#77ec6d" stroke="black" d="M2591,-187C2591,-187 2460,-187 2460,-187 2454,-187 2448,-181 2448,-175 2448,-175 2448,-116 2448,-116 2448,-110 2454,-104 2460,-104 2460,-104 2591,-104 2591,-104 2597,-104 2603,-110 2603,-116 2603,-116 2603,-175 2603,-175 2603,-181 2597,-187 2591,-187"/>
<text text-anchor="start" x="2488.5" y="-171.8" font-family="Helvetica,sans-Serif" font-size="14.00">buying ≤ 3.5</text>
<text text-anchor="start" x="2490" y="-156.8" font-family="Helvetica,sans-Serif" font-size="14.00">gini = 0.353</text>
<text text-anchor="start" x="2480.5" y="-141.8" font-family="Helvetica,sans-Serif" font-size="14.00">samples = 427</text>
<text text-anchor="start" x="2456" y="-126.8" font-family="Helvetica,sans-Serif" font-size="14.00">value = [74, 335, 18, 0]</text>
<text text-anchor="start" x="2484" y="-111.8" font-family="Helvetica,sans-Serif" font-size="14.00">class = unacc</text>
</g>
<!-- 25&#45;&gt;29 -->
<g id="edge29" class="edge">
<title>25&#45;&gt;29</title>
<path fill="none" stroke="black" d="M2353.09,-222.91C2380.79,-210.63 2411.11,-197.19 2438.5,-185.06"/>
<polygon fill="black" stroke="black" points="2439.94,-188.25 2447.67,-180.99 2437.11,-181.85 2439.94,-188.25"/>
</g>
<!-- 27 -->
<g id="node28" class="node">
<title>27</title>
<path fill="#eca470" stroke="black" d="M2241,-68C2241,-68 2118,-68 2118,-68 2112,-68 2106,-62 2106,-56 2106,-56 2106,-12 2106,-12 2106,-6 2112,0 2118,0 2118,0 2241,0 2241,0 2247,0 2253,-6 2253,-12 2253,-12 2253,-56 2253,-56 2253,-62 2247,-68 2241,-68"/>
<text text-anchor="start" x="2144" y="-52.8" font-family="Helvetica,sans-Serif" font-size="14.00">gini = 0.342</text>
<text text-anchor="start" x="2134.5" y="-37.8" font-family="Helvetica,sans-Serif" font-size="14.00">samples = 233</text>
<text text-anchor="start" x="2114" y="-22.8" font-family="Helvetica,sans-Serif" font-size="14.00">value = [182, 0, 51, 0]</text>
<text text-anchor="start" x="2137.5" y="-7.8" font-family="Helvetica,sans-Serif" font-size="14.00">class = vgood</text>
</g>
<!-- 26&#45;&gt;27 -->
<g id="edge27" class="edge">
<title>26&#45;&gt;27</title>
<path fill="none" stroke="black" d="M2230.97,-103.73C2224.27,-94.79 2217.18,-85.32 2210.47,-76.36"/>
<polygon fill="black" stroke="black" points="2213.23,-74.21 2204.44,-68.3 2207.63,-78.4 2213.23,-74.21"/>
</g>
<!-- 28 -->
<g id="node29" class="node">
<title>28</title>
<path fill="#effded" stroke="black" d="M2421.5,-68C2421.5,-68 2283.5,-68 2283.5,-68 2277.5,-68 2271.5,-62 2271.5,-56 2271.5,-56 2271.5,-12 2271.5,-12 2271.5,-6 2277.5,0 2283.5,0 2283.5,0 2421.5,0 2421.5,0 2427.5,0 2433.5,-6 2433.5,-12 2433.5,-12 2433.5,-56 2433.5,-56 2433.5,-62 2427.5,-68 2421.5,-68"/>
<text text-anchor="start" x="2317" y="-52.8" font-family="Helvetica,sans-Serif" font-size="14.00">gini = 0.629</text>
<text text-anchor="start" x="2307.5" y="-37.8" font-family="Helvetica,sans-Serif" font-size="14.00">samples = 292</text>
<text text-anchor="start" x="2279.5" y="-22.8" font-family="Helvetica,sans-Serif" font-size="14.00">value = [112, 128, 52, 0]</text>
<text text-anchor="start" x="2311" y="-7.8" font-family="Helvetica,sans-Serif" font-size="14.00">class = unacc</text>
</g>
<!-- 26&#45;&gt;28 -->
<g id="edge28" class="edge">
<title>26&#45;&gt;28</title>
<path fill="none" stroke="black" d="M2295.39,-103.73C2302.89,-94.7 2310.84,-85.12 2318.36,-76.08"/>
<polygon fill="black" stroke="black" points="2321.13,-78.23 2324.83,-68.3 2315.74,-73.75 2321.13,-78.23"/>
</g>
<!-- 30 -->
<g id="node31" class="node">
<title>30</title>
<path fill="#69ea5e" stroke="black" d="M2587,-68C2587,-68 2464,-68 2464,-68 2458,-68 2452,-62 2452,-56 2452,-56 2452,-12 2452,-12 2452,-6 2458,0 2464,0 2464,0 2587,0 2587,0 2593,0 2599,-6 2599,-12 2599,-12 2599,-56 2599,-56 2599,-62 2593,-68 2587,-68"/>
<text text-anchor="start" x="2490" y="-52.8" font-family="Helvetica,sans-Serif" font-size="14.00">gini = 0.276</text>
<text text-anchor="start" x="2480.5" y="-37.8" font-family="Helvetica,sans-Serif" font-size="14.00">samples = 399</text>
<text text-anchor="start" x="2460" y="-22.8" font-family="Helvetica,sans-Serif" font-size="14.00">value = [55, 335, 9, 0]</text>
<text text-anchor="start" x="2484" y="-7.8" font-family="Helvetica,sans-Serif" font-size="14.00">class = unacc</text>
</g>
<!-- 29&#45;&gt;30 -->
<g id="edge30" class="edge">
<title>29&#45;&gt;30</title>
<path fill="none" stroke="black" d="M2525.5,-103.73C2525.5,-95.52 2525.5,-86.86 2525.5,-78.56"/>
<polygon fill="black" stroke="black" points="2529,-78.3 2525.5,-68.3 2522,-78.3 2529,-78.3"/>
</g>
<!-- 31 -->
<g id="node32" class="node">
<title>31</title>
<path fill="#f1bd97" stroke="black" d="M2737.5,-68C2737.5,-68 2629.5,-68 2629.5,-68 2623.5,-68 2617.5,-62 2617.5,-56 2617.5,-56 2617.5,-12 2617.5,-12 2617.5,-6 2623.5,0 2629.5,0 2629.5,0 2737.5,0 2737.5,0 2743.5,0 2749.5,-6 2749.5,-12 2749.5,-12 2749.5,-56 2749.5,-56 2749.5,-62 2743.5,-68 2737.5,-68"/>
<text text-anchor="start" x="2648" y="-52.8" font-family="Helvetica,sans-Serif" font-size="14.00">gini = 0.436</text>
<text text-anchor="start" x="2642.5" y="-37.8" font-family="Helvetica,sans-Serif" font-size="14.00">samples = 28</text>
<text text-anchor="start" x="2625.5" y="-22.8" font-family="Helvetica,sans-Serif" font-size="14.00">value = [19, 0, 9, 0]</text>
<text text-anchor="start" x="2641.5" y="-7.8" font-family="Helvetica,sans-Serif" font-size="14.00">class = vgood</text>
</g>
<!-- 29&#45;&gt;31 -->
<g id="edge31" class="edge">
<title>29&#45;&gt;31</title>
<path fill="none" stroke="black" d="M2584.33,-103.73C2598.36,-94.01 2613.29,-83.66 2627.19,-74.02"/>
<polygon fill="black" stroke="black" points="2629.48,-76.7 2635.7,-68.13 2625.49,-70.94 2629.48,-76.7"/>
</g>
</g>
</svg>
