<?xml version="1.0" encoding="UTF-8" standalone="no"?>
<!DOCTYPE svg PUBLIC "-//W3C//DTD SVG 1.1//EN"
 "http://www.w3.org/Graphics/SVG/1.1/DTD/svg11.dtd">
<!-- Generated by graphviz version 2.43.0 (0)
 -->
<!-- Title: Tree Pages: 1 -->
<svg width="677pt" height="433pt"
 viewBox="0.00 0.00 677.00 433.00" xmlns="http://www.w3.org/2000/svg" xmlns:xlink="http://www.w3.org/1999/xlink">
<g id="graph0" class="graph" transform="scale(1 1) rotate(0) translate(4 429)">
<title>Tree</title>
<polygon fill="white" stroke="transparent" points="-4,4 -4,-429 673,-429 673,4 -4,4"/>
<!-- 0 -->
<g id="node1" class="node">
<title>0</title>
<path fill="#84c2ef" stroke="black" d="M493,-425C493,-425 347,-425 347,-425 341,-425 335,-419 335,-413 335,-413 335,-354 335,-354 335,-348 341,-342 347,-342 347,-342 493,-342 493,-342 499,-342 505,-348 505,-354 505,-354 505,-413 505,-413 505,-419 499,-425 493,-425"/>
<text text-anchor="start" x="360" y="-409.8" font-family="Helvetica,sans-Serif" font-size="14.00">jumlah person ≤ 2.5</text>
<text text-anchor="start" x="384.5" y="-394.8" font-family="Helvetica,sans-Serif" font-size="14.00">gini = 0.452</text>
<text text-anchor="start" x="371.5" y="-379.8" font-family="Helvetica,sans-Serif" font-size="14.00">samples = 1209</text>
<text text-anchor="start" x="343" y="-364.8" font-family="Helvetica,sans-Serif" font-size="14.00">value = [266, 50, 852, 41]</text>
<text text-anchor="start" x="386" y="-349.8" font-family="Helvetica,sans-Serif" font-size="14.00">class = acc</text>
</g>
<!-- 1 -->
<g id="node2" class="node">
<title>1</title>
<path fill="#baddf6" stroke="black" d="M407,-306C407,-306 261,-306 261,-306 255,-306 249,-300 249,-294 249,-294 249,-235 249,-235 249,-229 255,-223 261,-223 261,-223 407,-223 407,-223 413,-223 419,-229 419,-235 419,-235 419,-294 419,-294 419,-300 413,-306 407,-306"/>
<text text-anchor="start" x="285" y="-290.8" font-family="Helvetica,sans-Serif" font-size="14.00">keamanan ≤ 1.5</text>
<text text-anchor="start" x="298.5" y="-275.8" font-family="Helvetica,sans-Serif" font-size="14.00">gini = 0.571</text>
<text text-anchor="start" x="289" y="-260.8" font-family="Helvetica,sans-Serif" font-size="14.00">samples = 816</text>
<text text-anchor="start" x="257" y="-245.8" font-family="Helvetica,sans-Serif" font-size="14.00">value = [266, 50, 459, 41]</text>
<text text-anchor="start" x="300" y="-230.8" font-family="Helvetica,sans-Serif" font-size="14.00">class = acc</text>
</g>
<!-- 0&#45;&gt;1 -->
<g id="edge1" class="edge">
<title>0&#45;&gt;1</title>
<path fill="none" stroke="black" d="M390.16,-341.91C383.63,-333.01 376.64,-323.51 369.89,-314.33"/>
<polygon fill="black" stroke="black" points="372.53,-312.01 363.78,-306.02 366.89,-316.15 372.53,-312.01"/>
<text text-anchor="middle" x="360.01" y="-327.03" font-family="Helvetica,sans-Serif" font-size="14.00">True</text>
</g>
<!-- 8 -->
<g id="node9" class="node">
<title>8</title>
<path fill="#399de5" stroke="black" d="M565,-298.5C565,-298.5 449,-298.5 449,-298.5 443,-298.5 437,-292.5 437,-286.5 437,-286.5 437,-242.5 437,-242.5 437,-236.5 443,-230.5 449,-230.5 449,-230.5 565,-230.5 565,-230.5 571,-230.5 577,-236.5 577,-242.5 577,-242.5 577,-286.5 577,-286.5 577,-292.5 571,-298.5 565,-298.5"/>
<text text-anchor="start" x="479" y="-283.3" font-family="Helvetica,sans-Serif" font-size="14.00">gini = 0.0</text>
<text text-anchor="start" x="462" y="-268.3" font-family="Helvetica,sans-Serif" font-size="14.00">samples = 393</text>
<text text-anchor="start" x="445" y="-253.3" font-family="Helvetica,sans-Serif" font-size="14.00">value = [0, 0, 393, 0]</text>
<text text-anchor="start" x="473" y="-238.3" font-family="Helvetica,sans-Serif" font-size="14.00">class = acc</text>
</g>
<!-- 0&#45;&gt;8 -->
<g id="edge8" class="edge">
<title>0&#45;&gt;8</title>
<path fill="none" stroke="black" d="M450.18,-341.91C458.64,-330.54 467.83,-318.18 476.31,-306.77"/>
<polygon fill="black" stroke="black" points="479.18,-308.78 482.34,-298.67 473.56,-304.6 479.18,-308.78"/>
<text text-anchor="middle" x="485.97" y="-319.7" font-family="Helvetica,sans-Serif" font-size="14.00">False</text>
</g>
<!-- 2 -->
<g id="node3" class="node">
<title>2</title>
<path fill="#f5cdb0" stroke="black" d="M313,-187C313,-187 175,-187 175,-187 169,-187 163,-181 163,-175 163,-175 163,-116 163,-116 163,-110 169,-104 175,-104 175,-104 313,-104 313,-104 319,-104 325,-110 325,-116 325,-116 325,-175 325,-175 325,-181 319,-187 313,-187"/>
<text text-anchor="start" x="207" y="-171.8" font-family="Helvetica,sans-Serif" font-size="14.00">buying ≤ 3.5</text>
<text text-anchor="start" x="208.5" y="-156.8" font-family="Helvetica,sans-Serif" font-size="14.00">gini = 0.627</text>
<text text-anchor="start" x="199" y="-141.8" font-family="Helvetica,sans-Serif" font-size="14.00">samples = 273</text>
<text text-anchor="start" x="171" y="-126.8" font-family="Helvetica,sans-Serif" font-size="14.00">value = [147, 21, 64, 41]</text>
<text text-anchor="start" x="202" y="-111.8" font-family="Helvetica,sans-Serif" font-size="14.00">class = vgood</text>
</g>
<!-- 1&#45;&gt;2 -->
<g id="edge2" class="edge">
<title>1&#45;&gt;2</title>
<path fill="none" stroke="black" d="M302.77,-222.91C295.86,-213.92 288.47,-204.32 281.35,-195.05"/>
<polygon fill="black" stroke="black" points="284.04,-192.81 275.17,-187.02 278.49,-197.08 284.04,-192.81"/>
</g>
<!-- 5 -->
<g id="node6" class="node">
<title>5</title>
<path fill="#7ebfee" stroke="black" d="M493,-187C493,-187 355,-187 355,-187 349,-187 343,-181 343,-175 343,-175 343,-116 343,-116 343,-110 349,-104 355,-104 355,-104 493,-104 493,-104 499,-104 505,-110 505,-116 505,-116 505,-175 505,-175 505,-181 499,-187 493,-187"/>
<text text-anchor="start" x="375" y="-171.8" font-family="Helvetica,sans-Serif" font-size="14.00">keamanan ≤ 2.5</text>
<text text-anchor="start" x="392" y="-156.8" font-family="Helvetica,sans-Serif" font-size="14.00">gini = 0.42</text>
<text text-anchor="start" x="379" y="-141.8" font-family="Helvetica,sans-Serif" font-size="14.00">samples = 543</text>
<text text-anchor="start" x="351" y="-126.8" font-family="Helvetica,sans-Serif" font-size="14.00">value = [119, 29, 395, 0]</text>
<text text-anchor="start" x="390" y="-111.8" font-family="Helvetica,sans-Serif" font-size="14.00">class = acc</text>
</g>
<!-- 1&#45;&gt;5 -->
<g id="edge5" class="edge">
<title>1&#45;&gt;5</title>
<path fill="none" stroke="black" d="M365.23,-222.91C372.14,-213.92 379.53,-204.32 386.65,-195.05"/>
<polygon fill="black" stroke="black" points="389.51,-197.08 392.83,-187.02 383.96,-192.81 389.51,-197.08"/>
</g>
<!-- 3 -->
<g id="node4" class="node">
<title>3</title>
<path fill="#f3c6a6" stroke="black" d="M150,-68C150,-68 12,-68 12,-68 6,-68 0,-62 0,-56 0,-56 0,-12 0,-12 0,-6 6,0 12,0 12,0 150,0 150,0 156,0 162,-6 162,-12 162,-12 162,-56 162,-56 162,-62 156,-68 150,-68"/>
<text text-anchor="start" x="45.5" y="-52.8" font-family="Helvetica,sans-Serif" font-size="14.00">gini = 0.615</text>
<text text-anchor="start" x="36" y="-37.8" font-family="Helvetica,sans-Serif" font-size="14.00">samples = 203</text>
<text text-anchor="start" x="8" y="-22.8" font-family="Helvetica,sans-Serif" font-size="14.00">value = [114, 21, 27, 41]</text>
<text text-anchor="start" x="39" y="-7.8" font-family="Helvetica,sans-Serif" font-size="14.00">class = vgood</text>
</g>
<!-- 2&#45;&gt;3 -->
<g id="edge3" class="edge">
<title>2&#45;&gt;3</title>
<path fill="none" stroke="black" d="M183.3,-103.73C168.7,-93.92 153.14,-83.46 138.68,-73.75"/>
<polygon fill="black" stroke="black" points="140.56,-70.8 130.31,-68.13 136.66,-76.61 140.56,-70.8"/>
</g>
<!-- 4 -->
<g id="node5" class="node">
<title>4</title>
<path fill="#eaf4fc" stroke="black" d="M308,-68C308,-68 192,-68 192,-68 186,-68 180,-62 180,-56 180,-56 180,-12 180,-12 180,-6 186,0 192,0 192,0 308,0 308,0 314,0 320,-6 320,-12 320,-12 320,-56 320,-56 320,-62 314,-68 308,-68"/>
<text text-anchor="start" x="214.5" y="-52.8" font-family="Helvetica,sans-Serif" font-size="14.00">gini = 0.498</text>
<text text-anchor="start" x="209" y="-37.8" font-family="Helvetica,sans-Serif" font-size="14.00">samples = 70</text>
<text text-anchor="start" x="188" y="-22.8" font-family="Helvetica,sans-Serif" font-size="14.00">value = [33, 0, 37, 0]</text>
<text text-anchor="start" x="216" y="-7.8" font-family="Helvetica,sans-Serif" font-size="14.00">class = acc</text>
</g>
<!-- 2&#45;&gt;4 -->
<g id="edge4" class="edge">
<title>2&#45;&gt;4</title>
<path fill="none" stroke="black" d="M246.23,-103.73C246.68,-95.52 247.16,-86.86 247.61,-78.56"/>
<polygon fill="black" stroke="black" points="251.12,-78.48 248.18,-68.3 244.13,-78.09 251.12,-78.48"/>
</g>
<!-- 6 -->
<g id="node7" class="node">
<title>6</title>
<path fill="#399de5" stroke="black" d="M477,-68C477,-68 361,-68 361,-68 355,-68 349,-62 349,-56 349,-56 349,-12 349,-12 349,-6 355,0 361,0 361,0 477,0 477,0 483,0 489,-6 489,-12 489,-12 489,-56 489,-56 489,-62 483,-68 477,-68"/>
<text text-anchor="start" x="391" y="-52.8" font-family="Helvetica,sans-Serif" font-size="14.00">gini = 0.0</text>
<text text-anchor="start" x="374" y="-37.8" font-family="Helvetica,sans-Serif" font-size="14.00">samples = 274</text>
<text text-anchor="start" x="357" y="-22.8" font-family="Helvetica,sans-Serif" font-size="14.00">value = [0, 0, 274, 0]</text>
<text text-anchor="start" x="385" y="-7.8" font-family="Helvetica,sans-Serif" font-size="14.00">class = acc</text>
</g>
<!-- 5&#45;&gt;6 -->
<g id="edge6" class="edge">
<title>5&#45;&gt;6</title>
<path fill="none" stroke="black" d="M422.14,-103.73C421.76,-95.52 421.37,-86.86 420.99,-78.56"/>
<polygon fill="black" stroke="black" points="424.47,-78.13 420.52,-68.3 417.48,-78.45 424.47,-78.13"/>
</g>
<!-- 7 -->
<g id="node8" class="node">
<title>7</title>
<path fill="#fcfeff" stroke="black" d="M657,-68C657,-68 519,-68 519,-68 513,-68 507,-62 507,-56 507,-56 507,-12 507,-12 507,-6 513,0 519,0 519,0 657,0 657,0 663,0 669,-6 669,-12 669,-12 669,-56 669,-56 669,-62 663,-68 657,-68"/>
<text text-anchor="start" x="556" y="-52.8" font-family="Helvetica,sans-Serif" font-size="14.00">gini = 0.59</text>
<text text-anchor="start" x="543" y="-37.8" font-family="Helvetica,sans-Serif" font-size="14.00">samples = 269</text>
<text text-anchor="start" x="515" y="-22.8" font-family="Helvetica,sans-Serif" font-size="14.00">value = [119, 29, 121, 0]</text>
<text text-anchor="start" x="554" y="-7.8" font-family="Helvetica,sans-Serif" font-size="14.00">class = acc</text>
</g>
<!-- 5&#45;&gt;7 -->
<g id="edge7" class="edge">
<title>5&#45;&gt;7</title>
<path fill="none" stroke="black" d="M485.07,-103.73C499.76,-93.92 515.41,-83.46 529.96,-73.75"/>
<polygon fill="black" stroke="black" points="532.01,-76.59 538.39,-68.13 528.13,-70.77 532.01,-76.59"/>
</g>
</g>
</svg>
